<?xml version="1.0"?>
<svg xmlns="http://www.w3.org/2000/svg" xmlns:xlink="http://www.w3.org/1999/xlink" class="" id="Capa_1" style="enable-background:new 0 0 380.721 380.721;" viewBox="0 0 380.721 380.721" x="0px" y="0px" width="512px" height="512px" version="1.1" xml:space="preserve"><g><g>
	<g>
		<path class="active-path" d="M 190.372 29.813 c -88.673 0 -160.546 71.873 -160.546 160.547 c 0 63.891 37.418 118.894 91.445 144.734 l 5.025 -97.098 c 0 0 -9.452 -3.102 -11.521 -4.112 c -20.048 -8.831 -34.612 -34.833 -34.612 -68.58 c 0 -36.825 28.559 -68.544 56.17 -68.806 c 0.035 0 0.035 0 0.058 0 c 0.012 0 0.035 0 0.046 0 c 27.617 0.261 56.177 31.98 56.177 68.806 c 0 33.747 -14.582 59.738 -34.589 68.58 c -0.157 0.069 -11.613 4.229 -11.613 4.229 l 5.612 107.961 c 12.315 3.031 25.119 4.81 38.37 4.81 c 17.87 0 34.984 -3.044 51.041 -8.424 l 4.973 -96.214 c -13.105 -2.882 -24.283 -11.225 -31.289 -21.692 c -8.679 -13.001 6.681 -128.067 6.681 -128.067 h 9.992 v 107.978 h 9.923 V 96.499 h 10.852 v 107.99 h 9.876 V 96.499 h 11.259 v 107.99 h 9.91 V 96.499 h 7.668 c 0 0 15.36 115.066 6.67 128.067 c -6.937 10.364 -18.01 18.683 -30.952 21.634 c -0.232 0.082 -0.442 0.162 -0.442 0.162 l 4.322 82.761 c 47.823 -27.804 80.053 -79.46 80.053 -138.762 C 350.907 101.687 279.034 29.813 190.372 29.813 Z" data-original="#000000" data-old_color="#858484" fill="#757474"/>
		<path class="active-path" d="M 103.662 148.98 c 0.575 -2.341 1.348 -4.566 1.383 -4.606 c 0.25 -0.877 -0.215 -1.772 -1.168 -2.341 c -0.906 -0.488 -2.01 -0.238 -2.521 0.546 c 0 0 -1.098 1.749 -2.69 4.334 c -1.295 2.225 -3.212 5.78 -4.52 10.207 c -1.133 3.88 -2.486 9.039 -3.096 14.813 c -0.261 3.033 -0.32 5.769 -0.227 8.586 c 0.227 3.212 0.714 5.96 1.644 9.103 c 3.154 8.964 5.583 17.644 14.349 26.206 c 2.771 2.847 5.618 4.787 7.674 6.216 l 0.726 0.511 c 0.442 0.291 0.866 0.559 1.284 0.803 c 1.726 0.906 2.881 1.231 3.091 1.277 c 0.859 0.232 1.743 -0.186 2.108 -0.883 c 0.343 -0.732 0.093 -1.65 -0.621 -2.23 c 0 0 -1 -0.871 -2.283 -2.498 c -0.877 -0.988 -1.83 -2.417 -2.939 -4.031 c -0.784 -1.139 -1.708 -2.429 -2.568 -3.684 c -4.27 -6.518 -6.732 -15.615 -10.137 -24.934 c -0.668 -2.022 -1.214 -4.642 -1.418 -6.867 c -0.272 -2.568 -0.4 -5.042 -0.4 -7.337 c -0.099 -5.333 0.139 -9.911 0.604 -13.623 C 102.471 154.36 102.889 151.217 103.662 148.98 Z" data-original="#000000" data-old_color="#858484" fill="#757474"/>
		<path class="active-path" d="M 190.372 0 C 85.415 0 0 85.397 0 190.36 C 0 295.3 85.415 380.721 190.372 380.721 c 104.952 0 190.35 -85.421 190.35 -190.361 C 380.721 85.397 295.324 0 190.372 0 Z M 190.372 366.523 c -97.144 0 -176.18 -79.03 -176.18 -176.163 c 0 -97.144 79.036 -176.18 176.18 -176.18 c 97.133 0 176.175 79.036 176.175 176.18 C 366.546 287.493 287.504 366.523 190.372 366.523 Z" data-original="#000000" data-old_color="#858484" fill="#757474"/>
	</g>
</g></g> </svg>
